<svg xmlns="http://www.w3.org/2000/svg" fill="none" viewBox="0 0 24 24">
  <path fill="currentColor" d="M13.3 21.91a10 10 0 0 1-2.6 0l.25-1.98a8 8 0 0 0 2.1 0zM7.13 18.35a8 8 0 0 0 1.8 1.04l-.38.93-.28.7-.1.22a10 10 0 0 1-2.26-1.3zM16.87 18.35l1.22 1.58q-1.05.8-2.26 1.3l-.77-1.84a8 8 0 0 0 1.8-1.04M4.6 15.06q.42.98 1.05 1.8l-.8.62-.65.5-.13.1a10 10 0 0 1-1.31-2.25zM19.4 15.06l1.7.71.14.06a10 10 0 0 1-1.3 2.26l-1.6-1.22q.64-.83 1.05-1.8M2.09 10.7l1.98.25a8 8 0 0 0 0 2.1l-1.98.25a10 10 0 0 1 0-2.6M21.91 10.7a10 10 0 0 1 0 2.6l-1.98-.25a8 8 0 0 0 0-2.1zM4.07 5.91l1.58 1.22a8 8 0 0 0-1.04 1.8l-1.85-.76q.51-1.22 1.3-2.26M19.93 5.91q.8 1.04 1.3 2.26l-1.84.77a8 8 0 0 0-1.04-1.8zM8.17 2.76l.77 1.85q-.98.4-1.8 1.04L5.9 4.07a10 10 0 0 1 2.26-1.31M15.83 2.76q1.22.51 2.26 1.3l-.5.65-.72.94a8 8 0 0 0-1.8-1.04l.57-1.4zM12 2q.66 0 1.3.09l-.25 1.98a8 8 0 0 0-2.1 0l-.26-1.98Q11.34 2 12 2"/>
</svg>
