<svg xmlns="http://www.w3.org/2000/svg" fill="none" viewBox="0 0 240 240"><path fill="currentColor" d="M99.47 229.885c-12.84-3.264-28.259-10.888-30.503-15.082-1.446-2.701-1.221-6.223.561-8.768 2.322-3.315 7.189-2.895 14.227 1.23 21.897 12.833 51.185 12.823 72.337-.038 6.814-4.14 11.963-4.572 14.323-1.204 1.782 2.545 2.008 6.067.562 8.768-2.298 4.294-19.36 12.543-32.006 15.474-9.202 2.133-30.398 1.923-39.5-.392zm-82.276-22.629c-2.752-1.928-3.002-7.326-.472-10.232 2.87-3.299 40.1-24.212 43.1-24.212 6.367 0 9.57 6.997 5.399 11.79-2.871 3.299-40.1 24.211-43.101 24.211-1.488 0-3.704-.701-4.926-1.557m178.164-9.777c-10.512-6.142-19.848-11.784-20.749-12.539-.991-.831-1.638-2.88-1.638-5.193 0-4.365 2.649-6.935 7.149-6.935 3.002 0 40.23 20.913 43.101 24.212 2.53 2.906 2.28 8.304-.473 10.232-4.249 2.977-7.623 1.772-27.39-9.777m-102.387 2.333c-2.164-2.163-2.594-6.021-1.004-8.993.548-1.025 3.361-2.566 6.25-3.426 8.739-2.6 8.814-2.822 2.791-8.237-9.298-8.359-12.546-19.359-7.786-26.354 1.295-1.902 4.798-4.619 8.249-6.397 5.766-2.971 6.491-3.093 18.501-3.093s12.734.122 18.499 3.093c3.452 1.778 6.955 4.495 8.25 6.397 4.742 6.969 1.509 17.997-7.709 26.285l-5.265 4.734 3.418 1.428c1.88.785 4.641 1.735 6.136 2.11 5.179 1.3 7.316 7.658 4.113 12.231-1.164 1.663-2.556 2.223-5.529 2.223-4.204 0-14.508-3.875-19.235-7.233l-2.82-2.005-4.381 3.146c-8.47 6.083-18.636 7.933-22.478 4.091m36.633-32.368c2.402-2.403 4.368-4.9 4.368-5.55 0-2.089-7.131-4.258-14-4.258s-14.001 2.169-14.001 4.258c0 .65 1.967 3.147 4.37 5.55 4.051 4.051 4.75 4.369 9.631 4.369s5.58-.318 9.632-4.369M1.626 170.983c-2.27-2.508-2.137-8.425.238-10.575 1.115-1.009 6.073-2.464 12.05-3.538 5.587-1.003 10.388-2.055 10.67-2.337.283-.284-.039-3.372-.672-6.867-1.57-8.426-1.38-119.704.212-124.854 1.43-4.621 6.102-9.43 11.735-12.077 3.695-1.737 5.605-2.023 10.05-1.5 3.02.355 6.66 1.23 8.09 1.943S67.877 21.514 81.66 32.563l25.062 20.09 12.758-.037 12.759-.038 24.115-19.1c25.969-20.567 29.835-23.127 36.372-24.096 9.423-1.396 20.615 4.96 23.013 13.07 1.64 5.545 1.896 116.555.288 125.178-.651 3.495-.953 6.585-.672 6.867.284.283 5.084 1.334 10.669 2.337 11.676 2.097 13.945 3.552 13.945 8.942 0 4.647-2.462 7-7.321 7-4.665 0-43.262-6.72-46.968-8.177-3.286-1.293-4.711-3.592-4.711-7.602 0-5.133 2.852-6.611 11.377-5.89l7.397.624 1.113-4.42c1.579-6.27 1.378-21.094-.375-27.831-3.399-13.05-13.566-26.684-26.986-36.192-6.251-4.427-13.681-8.512-15.486-8.512-.642 0-1.039 3.437-1.039 9 0 7.667-.295 9.297-2 11-2.571 2.572-7.43 2.572-10.001 0-1.767-1.767-1.998-3.334-1.998-13.433 0-12.973.747-11.967-9.752-13.093l-6.249-.67v16.943c0 19.066-.422 20.253-7.175 20.253-6.342 0-6.824-1.447-6.824-20.427V67.58l-6.251.671c-10.498 1.126-9.75.12-9.75 13.093 0 10.1-.234 11.667-2 13.433-1.111 1.112-3.333 2-5 2-5.497 0-7-2.79-7-13 0-5.563-.397-9-1.04-9-1.805 0-9.235 4.085-15.486 8.512-13.09 9.275-22.966 22.295-26.862 35.421-1.886 6.353-2.159 22.01-.499 28.602l1.113 4.42 7.395-.624c6.286-.532 7.695-.355 9.388 1.177 2.129 1.927 2.622 6.445 1.03 9.421-1.468 2.743-4.867 3.698-26.797 7.531-23.297 4.071-27.244 4.3-29.586 1.711zm55.346-99.381c7.589-5.334 18.31-10.853 25.75-13.255l5.248-1.695-19.748-15.883C57.359 32.033 47.215 24.604 45.68 24.26c-3.76-.842-7.268 1.596-8.07 5.608-.352 1.756-.639 15.997-.639 31.647v28.452l6.749-6.9c3.713-3.794 9.676-8.953 13.25-11.466m145.482-40.558c-.733-5.132-3.973-7.827-8.152-6.778-2.072.52-34.201 24.77-41.143 31.054-1.042.944.226 1.734 6.148 3.837 13.857 4.92 30.752 16.157 38.998 25.938l4.165 4.941.296-27.361c.162-15.05.039-29.283-.312-31.631M71.372 131.413c-2.625-2.625-3.4-4.233-3.4-7.05 0-7.333 4.253-11.551 11.647-11.551 5.34 0 10.353 5.327 10.353 11 0 6.015-4.986 11-11 11-3.444 0-4.813-.612-7.6-3.399m82 0c-2.625-2.625-3.4-4.233-3.4-7.05 0-7.333 4.253-11.551 11.647-11.551 5.339 0 10.353 5.327 10.353 11 0 3.443-.614 4.814-3.401 7.601s-4.157 3.399-7.6 3.399-4.812-.612-7.599-3.399"/></svg>