<svg xmlns="http://www.w3.org/2000/svg" viewBox="0 0 954.67 948">
  <g fill="currentColor">
    <path d="M222.76 0c11.96 2.59 19.77 12.55 25.59 22.7 8.14 14.23 14.14 30.29 18.86 46.33 11.84 40.26 18.76 83.3 23.54 126.68.01.14.13.25.28.25.14.01.26-.1.29-.24 5.43-37.16 12.4-74.72 25.88-108.19a100 100 0 0 1 7.67-15c21.44-34.98 39.96 2.16 46.74 20.5q9.15 24.7 15.43 55.64 10.57 52.16 16.08 112.46 1.9 20.86 3.99 50.75.03.26.29.3c.16 0 .3-.1.33-.26 5.9-27.25 34.42-140.21 81.23-120.1 9.44 4.07 18.16 14.34 23.84 23.38 18.08 28.73 28.01 63.73 35.81 96.9.03.11.14.2.24.18q.18-.03.22-.21c3.76-61.39 10.37-123.12 24.28-182.07 3.36-14.24 19.77-79.44 43.53-71.16 8.56 2.97 14.96 13.39 18.8 21.52a216 216 0 0 1 12.96 35.32 614 614 0 0 1 16.16 80.01q.06.26.32.28a.3.3 0 0 0 .3-.28c4.8-43.33 11.87-86.74 23.71-127.29a243 243 0 0 1 17.88-44.39q3.42-6.54 10.08-14.22A29.6 29.6 0 0 1 733.4 0h4.36q10.51 2.44 17.56 11.37A113 113 0 0 1 771.2 38.5c13.7 33.42 21.56 69.06 27.43 105.1.01.12.12.2.24.2q.2-.01.24-.2a340 340 0 0 1 11.29-47.9c3.05-9.77 7.99-22.29 15.3-29.54 15.94-15.82 28.6 15.33 32.09 25.86a358 358 0 0 1 13.81 58.71q6.58 43.5 9.01 84.61a1213 1213 0 0 1-3.6 191.66 611 611 0 0 1-11.76 73.32 242 242 0 0 1-8.28 28.33c-3.61 10.13-15.98 39.47-31.37 23.75q-4.4-4.5-7-9.68a153 153 0 0 1-12.48-34.84.4.4 0 0 0-.4-.31.4.4 0 0 0-.37.36 832 832 0 0 1-15.26 93.77q-6.9 30.91-17.25 57.14c-5.43 13.76-17.2 38.41-33.45 42.04-37.11 8.28-58.71-98.18-63.18-121.27q-.02-.12-.13-.1t-.13.11c-3.99 58.5-10.62 117.9-24.35 174.36-3.67 15.1-18.59 71.03-39.65 68.86-26.3-2.74-41.78-83.39-45.52-104.03a.3.3 0 0 0-.3-.24q-.23.01-.28.25c-4.89 44.19-12.29 89.47-23.57 130.16-7.45 26.9-17.5 55.83-33.93 78.66q-7.89 10.94-18.28 16.42c-17.86 9.42-34.99-5.12-44.34-19.1a192 192 0 0 1-20.57-41.04c-19.2-52.64-28.99-109.35-34.9-165.28q-.01-.1-.13-.12a.13.13 0 0 0-.13.1q-2.85 13.67-7.12 31.99c-3.28 14.04-23.19 94.44-51.39 66.47-7.81-7.75-13.29-20.12-17.38-31.47a311 311 0 0 1-9.4-30.95c-13.86-56.44-20.54-116-24.46-174.98q-.02-.18-.2-.2a.2.2 0 0 0-.22.17C274.7 607 267.8 634.61 257.2 660.6c-5.24 12.84-12.88 27.67-23.85 36.03-24.19 18.41-43.35-20.95-49.97-37.66a371 371 0 0 1-16.82-54.94 829 829 0 0 1-15.78-96.15.36.36 0 0 0-.34-.32.35.35 0 0 0-.37.27c-3.47 13.92-8.2 28.44-16.05 40.5a25 25 0 0 1-5.71 5.94c-17.47 13.57-30.6-28.59-33.3-38.28-9.87-35.27-14.78-71.96-17.75-108.98a1222 1222 0 0 1-.14-193.68q3.35-42.14 10.28-78.65c3.55-18.68 7.91-36.9 15.36-53.6 2.83-6.32 7.39-14.5 13.62-17.93 24.3-13.35 38.69 68.57 40.76 80.48q.05.2.25.2c.12 0 .23-.1.24-.22a540 540 0 0 1 19.1-83.2 196 196 0 0 1 16.2-37.74C198.65 12.6 206.46 2.72 218.37 0zM31.83 395.57c-15.08 0-27.3-49.53-27.3-110.64S16.75 174.3 31.83 174.3s27.29 49.54 27.29 110.64-12.21 110.64-27.3 110.64M924.27 395.57c-15.07 0-27.28-49.53-27.28-110.64S909.2 174.3 924.27 174.3s27.28 49.54 27.28 110.64-12.22 110.64-27.28 110.64"/>
  </g>
</svg>
