<svg xmlns="http://www.w3.org/2000/svg" fill="none" viewBox="0 0 240 240"><g clip-path="url(#a)"><path fill="currentColor" d="M105.043 238.355c-4.927-1.505-12.763-9.774-14.153-14.933-.76-2.828-1.036-12.515-.82-28.869.318-24.09.38-24.729 2.927-30.157 3.482-7.424 7.278-11.547 17.943-19.488 8.21-6.113 8.956-6.951 8.956-10.067v-3.4h-8.25c-10.026 0-12.198-.569-31.417-8.126-17.433-6.856-21.945-9.745-25.083-16.06-2.474-4.978-3.013-13.323-1.196-18.534.958-2.748.615-3.715-3.75-10.583-3.95-6.212-5.16-7.453-6.805-6.967-5.466 1.613-13.42.59-19.795-2.549C4.634 59.285-5.267 33.36 3.196 15.194 8.078 4.714 15.297-.013 26.396 0 37.9 0 47.923 6.197 55.41 17.9c5.161 8.07 6.835 13.91 6.894 24.047.045 7.623-.34 9.84-2.506 14.5l-2.558 5.5 4.442 6.701 4.443 6.702 6.19-.578c5.874-.549 7.009-.253 22.135 5.736 8.77 3.473 16.803 6.252 17.852 6.176s9.809-3.647 19.469-7.937l17.563-7.8-7.997-.524c-10.182-.667-17.567-4.098-23.84-11.075-12.122-13.482-11.559-33.104 1.318-45.981 13.488-13.488 33.673-13.488 47.16 0 13.485 13.484 13.488 33.675 0 47.15l-5.587 5.586 4.5-1.368c7.432-2.258 18.672-2.66 26.681-.954 8.116 1.729 31.924 10.804 37.489 14.29 16.361 10.251 13.047 34.409-5.539 40.369-5.589 1.792-10.625.877-23.966-4.353-6.51-2.552-12.022-4.64-12.25-4.64s-.415 14.201-.415 31.56v31.56l10.49 17.574c12.796 21.439 13.905 24.727 11.391 33.806-1.469 5.307-9.073 12.912-14.381 14.381-8.063 2.233-15.524.792-21.057-4.065-1.994-1.752-9.135-12.474-16.591-24.914-10.211-17.036-13.203-22.835-13.601-26.37-.28-2.493-.762-4.532-1.069-4.532s-2.017 1-3.8 2.221l-3.242 2.222-.321 20.695-.321 20.695-3.029 4.306c-4.697 6.679-10.06 9.949-17.067 10.411-3.247.211-7.414-.072-9.258-.636zm12.398-16.368c2.451-2.45 2.454-2.492 2.486-23.75.038-15.166.383-21.75 1.25-22.875.671-.868 6.759-5.706 13.53-10.75 12.75-9.498 15.746-10.675 19.747-7.754 1.671 1.22 2.018 3.067 2.49 13.25l.548 11.833 12.258 20.246c6.743 11.135 13.104 20.697 14.137 21.25 4.815 2.577 11.026-1.027 10.997-6.38 0-1.164-4.956-10.4-11-20.525l-10.988-18.41v-40.685c0-40.114.037-40.712 2.107-42.59 3.705-3.347 10.91-2.267 26.918 4.035 7.767 3.057 15.01 5.559 16.094 5.559 2.699 0 6.881-4.395 6.881-7.232 0-4.42-2.744-6.448-15.724-11.625-20.96-8.36-27.64-9.501-38.714-6.617-3.222.84-16.509 6.24-29.527 12-29.454 13.034-28.12 12.913-49.456 4.474-8.343-3.3-16.121-6-17.285-6-1.989 0-7.294 5.114-7.294 7.03 0 2.461 2.626 6.039 5.388 7.34 9.461 4.455 29.294 11.71 34.058 12.457 3.029.475 7.655.493 10.28.042 13.511-2.332 13.771-2.321 16.106.648 1.953 2.483 2.168 3.957 2.168 14.929 0 8.264-.408 12.731-1.271 13.911-.699.955-6.405 5.654-12.681 10.441-15.952 12.168-15.474 10.963-15.85 39.948l-.302 23.244 2.506 2.506c3.178 3.178 6.997 3.194 10.143.05M41.998 55.157c10.998-7.396 5.283-31.376-9.244-38.788-4.935-2.517-8.938-2.44-12.345.242-8.573 6.744-6.821 23.62 3.527 33.967 6.84 6.841 12.547 8.286 18.062 4.579m108.197-1.336c6.934-3.512 10.701-9.452 10.701-16.88 0-11.238-8.684-19.125-20.145-18.296-6.646.481-11.744 3.806-15.06 9.821-2.983 5.412-2.136 14.75 1.775 19.583 1.639 2.025 4.536 4.517 6.439 5.537 4.293 2.303 11.988 2.413 16.29.235M14.098 155.444c-4.828-2.045-9.252-6.404-11.813-11.64-2.245-4.588-2.573-6.301-2.093-10.948.718-6.96 4.306-13.174 9.805-16.985 3.832-2.655 4.992-2.929 12.399-2.929s8.566.272 12.399 2.929c6.416 4.447 9.6 10.606 9.6 18.57 0 7.958-3.183 14.124-9.583 18.559-3.548 2.458-5.329 2.957-11.313 3.167-3.907.136-8.138-.189-9.401-.723m14.434-16.792c2.847-3.746.987-9.27-3.718-11.044-4.617-1.74-9.854 1.892-9.854 6.833 0 6.967 9.288 9.85 13.572 4.211"/></g><defs><clipPath id="a"><path fill="#fff" d="M0 0h240v240H0z"/></clipPath></defs></svg>