<svg xmlns="http://www.w3.org/2000/svg" viewBox="0 0 24 24">
  <path fill="#D34516" d="m23.83 11.7-1-.62a13.73 13.73 0 0 0-.03-.3l.86-.8a.35.35 0 0 0-.11-.58L22.45 9a8.5 8.5 0 0 0-.1-.29l.7-.96a.35.35 0 0 0-.23-.54L21.65 7a9.36 9.36 0 0 0-.14-.25l.5-1.08a.34.34 0 0 0-.03-.34.35.35 0 0 0-.3-.15l-1.19.04A6.74 6.74 0 0 0 20.3 5l.28-1.16a.35.35 0 0 0-.42-.41L19 3.7a14.02 14.02 0 0 0-.23-.19l.04-1.18a.34.34 0 0 0-.5-.33l-1.07.49-.26-.14-.19-1.17a.35.35 0 0 0-.54-.22l-.96.69a8.49 8.49 0 0 0-.29-.09L14.6.46a.35.35 0 0 0-.58-.12l-.8.86a9.3 9.3 0 0 0-.3-.02L12.29.17a.35.35 0 0 0-.58 0l-.63 1a13.74 13.74 0 0 0-.3.03l-.8-.86a.35.35 0 0 0-.58.11L9 1.55l-.29.1-.96-.7a.35.35 0 0 0-.54.23L7 2.35a9.36 9.36 0 0 0-.25.14l-1.08-.5a.35.35 0 0 0-.49.34l.04 1.18A7.98 7.98 0 0 0 5 3.7l-1.15-.28a.35.35 0 0 0-.42.42L3.7 5l-.2.22-1.18-.04a.35.35 0 0 0-.32.49l.49 1.08a9.17 9.17 0 0 0-.14.26l-1.17.19a.35.35 0 0 0-.22.54l.69.96a13.3 13.3 0 0 0-.1.29l-1.1.41a.35.35 0 0 0-.11.58l.86.8a9.3 9.3 0 0 0-.03.3l-1 .62a.34.34 0 0 0 0 .6l1 .62.03.29-.86.8a.35.35 0 0 0 .11.59l1.1.41.1.29-.7.95a.35.35 0 0 0 .23.55l1.17.19.14.26-.5 1.08a.35.35 0 0 0 .34.49l1.18-.05.19.23-.27 1.16a.35.35 0 0 0 .41.41L5 20.3l.22.19-.04 1.18a.34.34 0 0 0 .5.33l1.07-.5c.08.06.17.1.26.15l.19 1.17a.35.35 0 0 0 .55.22l.95-.69a9.3 9.3 0 0 0 .29.09l.41 1.1a.35.35 0 0 0 .58.12l.8-.86.3.03.63 1a.35.35 0 0 0 .59 0l.62-1 .3-.03.8.86a.35.35 0 0 0 .58-.11l.41-1.11a8.46 8.46 0 0 0 .29-.09l.96.7a.35.35 0 0 0 .54-.23l.2-1.17.25-.14 1.08.49a.35.35 0 0 0 .49-.33l-.04-1.18a6.73 6.73 0 0 0 .22-.19l1.16.27a.35.35 0 0 0 .41-.41L20.3 19l.19-.23 1.18.05a.34.34 0 0 0 .33-.5l-.49-1.07.14-.26 1.17-.2a.35.35 0 0 0 .22-.54l-.69-.95.1-.29 1.1-.41a.35.35 0 0 0 .11-.58l-.86-.81.03-.3 1-.62a.34.34 0 0 0 0-.59zm-6.74 8.36a.71.71 0 0 1 .3-1.4.71.71 0 1 1-.3 1.4zm-.34-2.32a.65.65 0 0 0-.77.5l-.36 1.67c-1.1.5-2.33.78-3.62.78a8.74 8.74 0 0 1-3.7-.81l-.35-1.67a.65.65 0 0 0-.77-.5l-1.47.32a8.72 8.72 0 0 1-.77-.9h7.17c.08 0 .14-.02.14-.09V14.5c0-.07-.06-.08-.14-.08h-2.1V12.8h2.27c.21 0 1.11.06 1.4 1.2.09.36.29 1.51.42 1.88.14.41.68 1.24 1.27 1.24h3.57a.75.75 0 0 0 .13-.01 8.79 8.79 0 0 1-.81.95zm-9.91 2.28a.71.71 0 1 1-.3-1.4.71.71 0 0 1 .3 1.4zM4.12 9a.71.71 0 1 1-1.3.58.71.71 0 0 1 1.3-.58zm-.84 1.98 1.54-.68a.65.65 0 0 0 .33-.86l-.32-.72h1.24v5.6h-2.5a8.78 8.78 0 0 1-.29-3.34zm6.74-.55V8.78h2.96c.15 0 1.08.18 1.08.87 0 .58-.71.78-1.3.78zm10.75 1.5c0 .21 0 .43-.02.64h-.9c-.09 0-.13.06-.13.15v.41c0 .98-.55 1.19-1.03 1.24-.45.05-.96-.19-1.02-.47-.27-1.52-.72-1.84-1.43-2.4.88-.56 1.8-1.39 1.8-2.5 0-1.19-.82-1.94-1.38-2.31a3.9 3.9 0 0 0-1.89-.62h-9.3a8.77 8.77 0 0 1 4.9-2.77l1.1 1.15a.65.65 0 0 0 .92.02l1.23-1.17a8.78 8.78 0 0 1 6 4.27l-.84 1.9a.65.65 0 0 0 .33.86l1.62.72c.03.29.04.58.04.87zm-9.3-9.6a.71.71 0 1 1 .99 1.02.71.71 0 0 1-.99-1.03zm8.34 6.7a.71.71 0 0 1 .94-.36.71.71 0 1 1-.94.36z"/>
</svg>
